<svg width="15" height="15" viewBox="0 0 15 15" fill="none" xmlns="http://www.w3.org/2000/svg">
<path d="M14.1429 12.0268C14.1429 12.2076 14.1094 12.4453 14.0424 12.74C13.9754 13.0279 13.9051 13.2556 13.8315 13.423C13.6908 13.7578 13.2824 14.1127 12.606 14.4877C11.9766 14.8292 11.3538 15 10.7377 15C10.5569 15 10.3795 14.99 10.2054 14.9699C10.0313 14.9431 9.83705 14.8996 9.62277 14.8393C9.41518 14.779 9.25781 14.7321 9.15067 14.6987C9.05022 14.6585 8.86607 14.5882 8.59821 14.4877C8.33036 14.3873 8.1663 14.327 8.10603 14.3069C7.44978 14.0725 6.86384 13.7946 6.34821 13.4732C5.49777 12.9442 4.61384 12.221 3.69643 11.3036C2.77902 10.3862 2.0558 9.50223 1.52679 8.65179C1.20536 8.13616 0.927455 7.55022 0.69308 6.89397C0.672991 6.8337 0.612723 6.66964 0.512277 6.40179C0.41183 6.13393 0.341518 5.94978 0.301339 5.84933C0.267857 5.74219 0.220982 5.58482 0.160714 5.37723C0.100446 5.16295 0.0569196 4.96875 0.0301339 4.79464C0.0100446 4.62054 0 4.44308 0 4.26228C0 3.6462 0.170759 3.02344 0.512277 2.39397C0.887277 1.71763 1.24219 1.30915 1.57701 1.16853C1.74442 1.09487 1.9721 1.02455 2.26004 0.957589C2.55469 0.890624 2.79241 0.857142 2.97321 0.857142C3.06696 0.857142 3.13728 0.867187 3.18415 0.887276C3.30469 0.927455 3.48214 1.18192 3.71652 1.65067C3.79018 1.7779 3.89063 1.9587 4.01786 2.19308C4.14509 2.42745 4.26228 2.64174 4.36942 2.83594C4.47656 3.02344 4.58036 3.20089 4.6808 3.3683C4.70089 3.39509 4.75781 3.47879 4.85156 3.61942C4.95201 3.76004 5.02567 3.88058 5.07254 3.98103C5.11942 4.07478 5.14286 4.16853 5.14286 4.26228C5.14286 4.3962 5.04576 4.56362 4.85156 4.76451C4.66406 4.9654 4.45647 5.14955 4.22879 5.31696C4.00781 5.48437 3.80022 5.66183 3.60603 5.84933C3.41853 6.03683 3.32478 6.19085 3.32478 6.31138C3.32478 6.37165 3.34152 6.44866 3.375 6.54241C3.40848 6.62946 3.43527 6.69643 3.45536 6.7433C3.48214 6.79018 3.52902 6.87054 3.59598 6.98437C3.66964 7.09821 3.70982 7.16183 3.71652 7.17522C4.22545 8.09263 4.80804 8.87946 5.46429 9.53571C6.12054 10.192 6.90737 10.7746 7.82478 11.2835C7.83817 11.2902 7.90179 11.3304 8.01563 11.404C8.12946 11.471 8.20982 11.5179 8.2567 11.5446C8.30357 11.5647 8.37054 11.5915 8.45759 11.625C8.55134 11.6585 8.62835 11.6752 8.68862 11.6752C8.80915 11.6752 8.96317 11.5815 9.15067 11.394C9.33817 11.1998 9.51563 10.9922 9.68304 10.7712C9.85045 10.5435 10.0346 10.3359 10.2355 10.1484C10.4364 9.95424 10.6038 9.85714 10.7377 9.85714C10.8315 9.85714 10.9252 9.88058 11.019 9.92746C11.1194 9.97433 11.24 10.048 11.3806 10.1484C11.5212 10.2422 11.6049 10.2991 11.6317 10.3192C11.7991 10.4196 11.9766 10.5234 12.1641 10.6306C12.3583 10.7377 12.5725 10.8549 12.8069 10.9821C13.0413 11.1094 13.2221 11.2098 13.3493 11.2835C13.8181 11.5179 14.0725 11.6953 14.1127 11.8158C14.1328 11.8627 14.1429 11.933 14.1429 12.0268Z" fill="white"/>
</svg>
